# xmcd
#
# Track frame offsets: 
#        150
#        9869
#        22768
#        39233
#        53916
#        73112
#        79681
#        92942
#        98162
#        112848
#        133207
#        139189
#        154815
#        161254
#        173027
#        183651
#        200496
#
# Disc length: 2856 seconds
#
# Revision: 0
# Processed by: cddbd v1.5.2PL0 Copyright (c) Steve Scherf et al.
# Submitted via: ExactAudioCopyFreeDBPlugin 1.0
#
DISCID=d50b2611
DTITLE=Guano Padano - Americana
DYEAR=2014
DGENRE=Rock
TTITLE0=The Hushed Universe
TTITLE1=Pian della tortilla
TTITLE2=El toro
TTITLE3=My Banjo Dog
TTITLE4=Dago Red
TTITLE5=But Children Own the Stars, pt. 1
TTITLE6=White Giant
TTITLE7=The Hollow Answer of the Night
TTITLE8=Flem's Circus
TTITLE9=My Town
TTITLE10=Station 37
TTITLE11=Cacti
TTITLE12=But Children Own the Stars, pt. 2
TTITLE13=Better Than the Radio
TTITLE14=The Seed and the Soil
TTITLE15=Black Boy
TTITLE16=The Fat of the Land
EXTD=
EXTT0=
EXTT1=
EXTT2=
EXTT3=
EXTT4=
EXTT5=
EXTT6=
EXTT7=
EXTT8=
EXTT9=
EXTT10=
EXTT11=
EXTT12=
EXTT13=
EXTT14=
EXTT15=
EXTT16=
PLAYORDER=
